<svg xmlns="http://www.w3.org/2000/svg" enable-background="new 0 0 512 512" viewBox="0 0 512 512"><linearGradient id="a" x1="25.164" x2="499.683" y1="505.772" y2="31.253" gradientUnits="userSpaceOnUse"><stop offset="0" stop-color="#fcc60e"/><stop offset="1" stop-color="#e92e29"/></linearGradient><path fill="url(#a)" d="M170.169,349.431c20.273-12.563,33.81-35.005,33.81-60.558c0-39.26-31.94-71.2-71.2-71.2s-71.2,31.94-71.2,71.2
	c0,25.552,13.537,47.995,33.809,60.558c-55.191,16.194-95.61,67.282-95.61,127.642c0,4.418,3.582,8,8,8h249.999c4.418,0,8-3.582,8-8
	C265.778,416.713,225.359,365.625,170.169,349.431z M77.58,288.873c0-30.438,24.763-55.2,55.2-55.2s55.2,24.762,55.2,55.2
	c0,30.429-24.749,55.186-55.174,55.199c-0.009,0-0.018,0-0.026,0c-0.008,0-0.017,0-0.025,0
	C102.328,344.058,77.58,319.302,77.58,288.873z M16.049,469.072c4.125-60.788,54.891-108.987,116.704-109
	c0.009,0,0.017,0.001,0.026,0.001c0.009,0,0.017-0.001,0.026-0.001c61.812,0.014,112.577,48.213,116.702,109H16.049z
	 M176.193,197.961c0.849,0.29,1.72,0.43,2.583,0.43c2.431,0,4.788-1.11,6.332-3.109l36.631-47.405h262.039c15.439,0,28-12.561,28-28
	V54.928c0-15.439-12.561-28-28-28h-285c-15.439,0-28,12.561-28,28V190.39C170.778,193.813,172.955,196.855,176.193,197.961z
	 M186.778,54.928c0-6.617,5.383-12,12-12h285c6.617,0,12,5.383,12,12v64.949c0,6.617-5.383,12-12,12H217.811
	c-2.478,0-4.815,1.148-6.33,3.108l-24.703,31.968V54.928z M325.878,87.402c0-4.418,3.582-8,8-8h50.813c4.418,0,8,3.582,8,8
	s-3.582,8-8,8h-50.813C329.459,95.402,325.878,91.82,325.878,87.402z M220.778,87.402c0-4.418,3.582-8,8-8h70.44
	c4.418,0,8,3.582,8,8s-3.582,8-8,8h-70.44C224.359,95.402,220.778,91.82,220.778,87.402z M407.722,87.402c0-4.418,3.582-8,8-8
	h38.056c4.418,0,8,3.582,8,8s-3.582,8-8,8h-38.056C411.303,95.402,407.722,91.82,407.722,87.402z M481.541,187.82H301.903
	c-16.917,0-30.681,13.764-30.681,30.682v104.334c0,16.918,13.764,30.682,30.681,30.682h179.637
	c16.917,0,30.681-13.764,30.681-30.682V218.501C512.221,201.583,498.458,187.82,481.541,187.82z M423.662,259.026l70.939-47.197
	c1.028,2.005,1.62,4.269,1.62,6.672v104.334c0,1.296-0.185,2.547-0.502,3.744L423.662,259.026z M287.724,326.58
	c-0.317-1.198-0.502-2.448-0.502-3.744V218.501c0-2.404,0.592-4.668,1.62-6.672l70.939,47.197L287.724,326.58z M305.689,203.82
	h172.066l-86.033,57.24L305.689,203.82z M301.903,337.518c-0.766,0-1.514-0.077-2.249-0.191l73.81-69.197l13.826,9.198
	c1.342,0.894,2.887,1.34,4.431,1.34s3.089-0.446,4.431-1.34l13.826-9.198l73.81,69.197c-0.735,0.114-1.482,0.191-2.248,0.191
	H301.903z"/></svg>
